<?xml version="1.0" encoding="UTF-8" standalone="no"?>
<!-- Created with Inkscape (http://www.inkscape.org/) -->

<svg
   xmlns:dc="http://purl.org/dc/elements/1.1/"
   xmlns:cc="http://creativecommons.org/ns#"
   xmlns:rdf="http://www.w3.org/1999/02/22-rdf-syntax-ns#"
   xmlns:svg="http://www.w3.org/2000/svg"
   xmlns="http://www.w3.org/2000/svg"
   xmlns:sodipodi="http://sodipodi.sourceforge.net/DTD/sodipodi-0.dtd"
   xmlns:inkscape="http://www.inkscape.org/namespaces/inkscape"
   width="210mm"
   height="297mm"
   viewBox="0 0 210 297"
   version="1.1"
   id="svg8"
   sodipodi:docname="AC_symbol.svg"
   inkscape:version="0.92.4 (5da689c313, 2019-01-14)">
  <defs
     id="defs2" />
  <sodipodi:namedview
     id="base"
     pagecolor="#ffffff"
     bordercolor="#666666"
     borderopacity="1.0"
     inkscape:pageopacity="0.0"
     inkscape:pageshadow="2"
     inkscape:zoom="0.7"
     inkscape:cx="248.88372"
     inkscape:cy="486.15702"
     inkscape:document-units="mm"
     inkscape:current-layer="layer1"
     showgrid="false"
     inkscape:window-width="1920"
     inkscape:window-height="1017"
     inkscape:window-x="1912"
     inkscape:window-y="32"
     inkscape:window-maximized="1" />
  <metadata
     id="metadata5">
    <rdf:RDF>
      <cc:Work
         rdf:about="">
        <dc:format>image/svg+xml</dc:format>
        <dc:type
           rdf:resource="http://purl.org/dc/dcmitype/StillImage" />
        <dc:title></dc:title>
      </cc:Work>
    </rdf:RDF>
  </metadata>
  <g
     inkscape:label="Layer 1"
     inkscape:groupmode="layer"
     id="layer1">
    <path
       style="color:#000000;font-style:normal;font-variant:normal;font-weight:normal;font-stretch:normal;font-size:medium;line-height:normal;font-family:sans-serif;font-variant-ligatures:normal;font-variant-position:normal;font-variant-caps:normal;font-variant-numeric:normal;font-variant-alternates:normal;font-feature-settings:normal;text-indent:0;text-align:start;text-decoration:none;text-decoration-line:none;text-decoration-style:solid;text-decoration-color:#000000;letter-spacing:normal;word-spacing:normal;text-transform:none;writing-mode:lr-tb;direction:ltr;text-orientation:mixed;dominant-baseline:auto;baseline-shift:baseline;text-anchor:start;white-space:normal;shape-padding:0;clip-rule:nonzero;display:inline;overflow:visible;visibility:visible;opacity:1;isolation:auto;mix-blend-mode:normal;color-interpolation:sRGB;color-interpolation-filters:linearRGB;solid-color:#000000;solid-opacity:1;vector-effect:none;fill:#000000;fill-opacity:1;fill-rule:nonzero;stroke:none;stroke-width:0.26458332px;stroke-linecap:butt;stroke-linejoin:miter;stroke-miterlimit:4;stroke-dasharray:none;stroke-dashoffset:0;stroke-opacity:1;color-rendering:auto;image-rendering:auto;shape-rendering:auto;text-rendering:auto;enable-background:accumulate"
       d="m 53.233445,136.17597 0.09375,0.32226 7.333984,25.41797 61.267581,73.84179 0.0684,-0.008 c 0.30665,-0.0283 0.53332,0.0766 0.72266,0.29883 0.18934,0.22223 0.33003,0.57001 0.41211,1.00781 0.16223,0.86538 0.0845,2.07422 -0.20313,3.30274 l -13.11328,10.14843 c -1.80678,-0.72382 -3.11403,-0.60334 -3.91602,-0.041 -0.81635,0.5724 -1.10016,1.56251 -0.9121,2.43359 0.18805,0.87108 0.8621,1.63626 1.92773,1.73828 1.06563,0.10203 2.49203,-0.4431 4.23242,-2.10156 l -0.0137,0.0117 11.6875,-8.37695 8.30664,-1.41407 18.0293,23.49805 0.10547,-0.082 c 0.34473,-0.26713 0.5688,-0.35373 0.62695,-0.34961 0.0291,0.002 0.0255,-3.4e-4 0.043,0.0332 0.0174,0.0336 0.0354,0.10804 0.041,0.21094 0.0224,0.41162 -0.12114,1.23876 -0.0976,2.15234 0.0235,0.91359 0.21955,1.93453 0.94726,2.76563 0.72267,0.82533 2.0515,1.18863 4.10354,1.35162 2.17962,1.22983 3.96159,1.01833 5.08396,-0.0528 1.12587,-1.07445 1.52828,-2.74925 0.79102,-3.90039 l 0.0176,0.10156 c 0.50552,-2.21171 0.30356,-3.71123 -0.26953,-4.73828 -0.5731,-1.02706 -1.50933,-1.56671 -2.41602,-1.88477 -0.90669,-0.31805 -1.79711,-0.42286 -2.28125,-0.57031 -0.12104,-0.0369 -0.21584,-0.0776 -0.27344,-0.11523 -0.0576,-0.0377 -0.0739,-0.0647 -0.0781,-0.0879 -0.004,-0.0232 0.002,-0.0679 0.0527,-0.14648 0.0511,-0.0786 0.14517,-0.18127 0.28711,-0.30664 l 0.0957,-0.084 -18.5957,-22.83204 2.92773,-6.56445 11.92188,-10.44726 -0.0273,0.0176 c 1.78322,-0.92263 2.62784,-2.04906 2.84765,-3.0957 0.21981,-1.04664 -0.18732,-1.99842 -0.86523,-2.55078 -0.67791,-0.55236 -1.64003,-0.70355 -2.47852,-0.15234 -0.82858,0.54469 -1.51691,1.76043 -1.76953,3.86328 -2.53299,2.12229 -5.85413,4.78539 -11.93945,9.49218 -1.07078,0.47099 -2.51659,0.37463 -3.57227,-0.01 -0.52928,-0.19272 -0.95899,-0.45694 -1.1914,-0.73438 -0.11621,-0.13871 -0.18197,-0.27761 -0.19922,-0.41211 -0.0172,-0.13449 0.0108,-0.26958 0.10547,-0.41601 l 0.0508,-0.0762 -57.234382,-76.84375 z m 0.439453,0.57226 7.226562,25.04102 61.18583,73.74225 c -0.0785,0.15968 0.8153,0.1848 0.83594,0.3457 0.0252,0.19665 0.33256,0.96558 0.47265,1.13282 0.28019,0.33446 -0.34876,2.91987 -0.49187,3.34038 -0.38298,1.1253 12.96724,-2.07267 14.13032,-2.58864 v 0 l 3.01953,-6.76758 c 6.11974,-4.73314 7.50384,-9.89436 10.04678,-12.02562 l 0.041,-0.0332 0.006,-0.0527 c 0.23975,-2.10451 0.92219,-3.2454 1.66601,-3.73437 0.74383,-0.48897 1.56299,-0.35463 2.16602,0.13672 0.60303,0.49135 0.97505,1.34033 0.77539,2.29101 -0.19966,0.95069 -0.93982,1.73255 -2.58101,2.71327 2.20437,-1.12509 2.44639,-1.92799 2.58101,-2.71327 1.31135,-1.99343 -3.94511,-5.82565 -4.60742,1.30664 -3.40518,2.85666 -18.39632,18.93612 -18.90617,23.58806 l 17.98242,23.4336 c -0.0969,0.0936 6.60637,-4.44195 6.55266,-4.35936 -0.0724,0.11127 -0.55394,-0.51918 -0.5332,-0.40625 0.0207,0.11294 0.10001,0.20071 0.19336,0.26172 0.0809,0.0818 0.0512,0.3624 0.33984,0.14453 0.53404,0.16265 1.39897,0.2623 2.27149,0.56836 0.87252,0.30607 1.73872,0.80891 2.27148,1.76367 0.53276,0.95477 0.74048,2.37929 0.24414,4.55079 l -0.0117,0.0527 0.0293,0.0469 c 0.64936,1.0139 0.29885,2.56546 -0.75,3.56641 -1.04885,1.00095 -2.76865,1.45851 -4.87695,0.25977 v 0 c 1.25507,0.69019 1.47142,0.63223 2.62187,0.81272 3.81308,-0.52176 3.66005,-3.97038 2.98748,-4.7385 1.18023,-2.59917 0.16039,-6.89691 -4.78711,-6.88282 -0.0226,-0.88085 -3.45539,1.52303 -3.4818,1.03709 -0.007,-0.12149 -1.84141,2.18141 -1.88931,2.08929 -0.0479,-0.0921 5.18984,-2.64646 5.07915,-2.6543 -1.8182,-2.75362 -5.98669,3.68577 -6.2607,3.88728 l -17.98242,-23.4336 -8.52149,1.44922 -11.74609,8.41797 -0.006,0.008 c -1.70896,1.62851 -3.07249,2.12249 -4.02539,2.03125 -0.9529,-0.0912 -1.52552,-0.75381 -1.69336,-1.53125 -0.16784,-0.77743 -0.24975,-0.75909 0,0 0.10416,0.81324 0.62136,1.43529 1.69336,1.53125 0.86246,0.22276 2.71907,-0.60491 4.02539,-2.03125 l 11.75209,-8.42597 8.52149,-1.44922 c 0.30287,-1.27148 6.19218,-4.05952 5.86373,-4.18924 -0.0874,-0.46646 -13.80012,-2.25933 -14.03432,-2.53421 -0.20676,-0.24267 -0.65657,-0.20929 -0.98359,-0.21577 L 60.89946,161.78925 Z"
       id="path828"
       inkscape:connector-curvature="0"
       sodipodi:nodetypes="cccccscccccccccccccccccccccccccccccccccsscccccccccccccccscccccccscccccccccccccccsccccccccccccccccccccccccc" />
    <path
       style="color:#000000;font-style:normal;font-variant:normal;font-weight:normal;font-stretch:normal;font-size:medium;line-height:normal;font-family:sans-serif;font-variant-ligatures:normal;font-variant-position:normal;font-variant-caps:normal;font-variant-numeric:normal;font-variant-alternates:normal;font-feature-settings:normal;text-indent:0;text-align:start;text-decoration:none;text-decoration-line:none;text-decoration-style:solid;text-decoration-color:#000000;letter-spacing:normal;word-spacing:normal;text-transform:none;writing-mode:lr-tb;direction:ltr;text-orientation:mixed;dominant-baseline:auto;baseline-shift:baseline;text-anchor:start;white-space:normal;shape-padding:0;clip-rule:nonzero;display:inline;overflow:visible;visibility:visible;opacity:1;isolation:auto;mix-blend-mode:normal;color-interpolation:sRGB;color-interpolation-filters:linearRGB;solid-color:#000000;solid-opacity:1;vector-effect:none;fill:#000000;fill-opacity:1;fill-rule:nonzero;stroke:none;stroke-width:0.26458332px;stroke-linecap:butt;stroke-linejoin:miter;stroke-miterlimit:4;stroke-dasharray:none;stroke-dashoffset:0;stroke-opacity:1;color-rendering:auto;image-rendering:auto;shape-rendering:auto;text-rendering:auto;enable-background:accumulate"
       d="m 145.51429,114.25682 c -33.49613,4.41747 -67.017866,9.10621 -100.439457,14.04101 -5.936304,0.9405 -10.122025,5.65691 -9.035156,12.91797 6.97958,49.33461 13.1908,98.83464 20.636718,148.06836 1.203714,6.63163 6.975745,7.66766 14.530966,6.58319 33.179119,-4.91055 66.524549,-9.16413 99.601219,-14.47926 5.76011,-0.98353 9.10213,-5.60967 8.29165,-12.43792 -7.19115,-49.38464 -13.53974,-98.94342 -20.8086,-148.29687 -1.43406,-5.79287 -7.6965,-6.88337 -12.77734,-6.39648 z m 1.43164,4.23242 c 5.71872,-0.4851 7.32884,2.34999 7.93359,7.47266 6.62912,48.85452 13.31074,94.86753 19.68267,143.71885 0.71332,5.41802 -2.40179,7.00053 -7.40904,7.87372 -31.1129,4.27814 -67.38157,10.20514 -98.516283,14.11291 -6.799869,0.2351 -6.991514,0.4302 -8.876932,-10.88254 -6.269442,-46.6155 -13.474366,-94.44888 -19.420407,-141.04197 -0.343137,-2.8711 -0.492918,-6.29478 5.845923,-7.65633 29.277702,-3.89972 71.443879,-10.16915 100.760479,-13.5973 z"
       id="path832"
       inkscape:connector-curvature="0"
       sodipodi:nodetypes="cccccccccccccccccc" />
  </g>
</svg>
